<svg width="455" height="98" viewBox="0 0 455 98" fill="none" xmlns="http://www.w3.org/2000/svg">
<rect x="2" y="2" width="451" height="94" rx="47" stroke="#888888" stroke-width="4"/>
<path d="M70.875 40.2614C70.6932 38.6477 69.9432 37.3977 68.625 36.5114C67.3068 35.6136 65.6477 35.1648 63.6477 35.1648C62.2159 35.1648 60.9773 35.392 59.9318 35.8466C58.8864 36.2898 58.0739 36.9034 57.4943 37.6875C56.9261 38.4602 56.642 39.3409 56.642 40.3295C56.642 41.1591 56.8352 41.875 57.2216 42.4773C57.6193 43.0795 58.1364 43.5852 58.7727 43.9943C59.4205 44.392 60.1136 44.7273 60.8523 45C61.5909 45.2614 62.3011 45.4773 62.983 45.6477L66.392 46.5341C67.5057 46.8068 68.6477 47.1761 69.8182 47.642C70.9886 48.108 72.0739 48.7216 73.0739 49.483C74.0739 50.2443 74.8807 51.1875 75.4943 52.3125C76.1193 53.4375 76.4318 54.7841 76.4318 56.3523C76.4318 58.3295 75.9205 60.0852 74.8977 61.6193C73.8864 63.1534 72.4148 64.3636 70.483 65.25C68.5625 66.1364 66.2386 66.5795 63.5114 66.5795C60.8977 66.5795 58.6364 66.1648 56.7273 65.3352C54.8182 64.5057 53.3239 63.3295 52.2443 61.8068C51.1648 60.2727 50.5682 58.4545 50.4545 56.3523H55.7386C55.8409 57.6136 56.25 58.6648 56.9659 59.5057C57.6932 60.3352 58.6193 60.9545 59.7443 61.3636C60.8807 61.7614 62.125 61.9602 63.4773 61.9602C64.9659 61.9602 66.2898 61.7273 67.4489 61.2614C68.6193 60.7841 69.5398 60.125 70.2102 59.2841C70.8807 58.4318 71.2159 57.4375 71.2159 56.3011C71.2159 55.267 70.9205 54.4205 70.3295 53.7614C69.75 53.1023 68.9602 52.5568 67.9602 52.125C66.9716 51.6932 65.8523 51.3125 64.6023 50.983L60.4773 49.858C57.6818 49.0966 55.4659 47.9773 53.8295 46.5C52.2045 45.0227 51.392 43.0682 51.392 40.6364C51.392 38.625 51.9375 36.8693 53.0284 35.3693C54.1193 33.8693 55.5966 32.7045 57.4602 31.875C59.3239 31.0341 61.4261 30.6136 63.767 30.6136C66.1307 30.6136 68.2159 31.0284 70.0227 31.858C71.8409 32.6875 73.2727 33.8295 74.3182 35.2841C75.3636 36.7273 75.9091 38.3864 75.9545 40.2614H70.875ZM87.1734 50.4545V66H82.0768V31.0909H87.1052V44.0795H87.429C88.0427 42.6705 88.9802 41.5511 90.2415 40.7216C91.5029 39.892 93.1506 39.4773 95.1847 39.4773C96.9802 39.4773 98.5484 39.8466 99.8893 40.5852C101.242 41.3239 102.287 42.4261 103.026 43.892C103.776 45.3466 104.151 47.1648 104.151 49.3466V66H99.054V49.9602C99.054 48.0398 98.5597 46.5511 97.5711 45.4943C96.5824 44.4261 95.2074 43.892 93.4461 43.892C92.2415 43.892 91.162 44.1477 90.2074 44.6591C89.2643 45.1705 88.5199 45.9205 87.9745 46.9091C87.4404 47.8864 87.1734 49.0682 87.1734 50.4545ZM121.74 66.5284C119.286 66.5284 117.144 65.9659 115.314 64.8409C113.484 63.7159 112.064 62.142 111.053 60.1193C110.041 58.0966 109.536 55.733 109.536 53.0284C109.536 50.3125 110.041 47.9375 111.053 45.9034C112.064 43.8693 113.484 42.2898 115.314 41.1648C117.144 40.0398 119.286 39.4773 121.74 39.4773C124.195 39.4773 126.337 40.0398 128.166 41.1648C129.996 42.2898 131.416 43.8693 132.428 45.9034C133.439 47.9375 133.945 50.3125 133.945 53.0284C133.945 55.733 133.439 58.0966 132.428 60.1193C131.416 62.142 129.996 63.7159 128.166 64.8409C126.337 65.9659 124.195 66.5284 121.74 66.5284ZM121.757 62.25C123.348 62.25 124.666 61.8295 125.712 60.9886C126.757 60.1477 127.53 59.0284 128.03 57.6307C128.541 56.233 128.797 54.6932 128.797 53.0114C128.797 51.3409 128.541 49.8068 128.03 48.4091C127.53 47 126.757 45.8693 125.712 45.017C124.666 44.1648 123.348 43.7386 121.757 43.7386C120.155 43.7386 118.825 44.1648 117.769 45.017C116.723 45.8693 115.945 47 115.433 48.4091C114.933 49.8068 114.683 51.3409 114.683 53.0114C114.683 54.6932 114.933 56.233 115.433 57.6307C115.945 59.0284 116.723 60.1477 117.769 60.9886C118.825 61.8295 120.155 62.25 121.757 62.25ZM144.273 66L136.568 39.8182H141.835L146.966 59.0455H147.222L152.369 39.8182H157.637L162.75 58.9602H163.006L168.102 39.8182H173.369L165.682 66H160.483L155.165 47.0966H154.773L149.455 66H144.273ZM190.429 75.8182V39.8182H195.407V44.0625H195.833C196.128 43.517 196.554 42.8864 197.111 42.1705C197.668 41.4545 198.441 40.8295 199.429 40.2955C200.418 39.75 201.725 39.4773 203.35 39.4773C205.463 39.4773 207.35 40.0114 209.009 41.0795C210.668 42.1477 211.969 43.6875 212.912 45.6989C213.867 47.7102 214.344 50.1307 214.344 52.9602C214.344 55.7898 213.872 58.2159 212.929 60.2386C211.986 62.25 210.691 63.8011 209.043 64.892C207.395 65.9716 205.514 66.5114 203.401 66.5114C201.81 66.5114 200.509 66.2443 199.497 65.7102C198.497 65.1761 197.713 64.5511 197.145 63.8352C196.577 63.1193 196.139 62.483 195.833 61.9261H195.526V75.8182H190.429ZM195.424 52.9091C195.424 54.75 195.691 56.3636 196.225 57.75C196.759 59.1364 197.532 60.2216 198.543 61.0057C199.554 61.7784 200.793 62.1648 202.259 62.1648C203.782 62.1648 205.054 61.7614 206.077 60.9545C207.1 60.1364 207.872 59.0284 208.395 57.6307C208.929 56.233 209.196 54.6591 209.196 52.9091C209.196 51.1818 208.935 49.6307 208.412 48.2557C207.901 46.8807 207.128 45.7955 206.094 45C205.071 44.2045 203.793 43.8068 202.259 43.8068C200.782 43.8068 199.532 44.1875 198.509 44.9489C197.497 45.7102 196.73 46.7727 196.208 48.1364C195.685 49.5 195.424 51.0909 195.424 52.9091ZM219.814 66V39.8182H224.74V43.9773H225.013C225.49 42.5682 226.331 41.4602 227.536 40.6534C228.752 39.8352 230.127 39.4261 231.661 39.4261C231.979 39.4261 232.354 39.4375 232.786 39.4602C233.229 39.483 233.576 39.5114 233.826 39.5455V44.4205C233.621 44.3636 233.257 44.3011 232.735 44.233C232.212 44.1534 231.689 44.1136 231.167 44.1136C229.962 44.1136 228.888 44.3693 227.945 44.8807C227.013 45.3807 226.274 46.0795 225.729 46.9773C225.184 47.8636 224.911 48.875 224.911 50.0114V66H219.814ZM248.087 66.5284C245.633 66.5284 243.49 65.9659 241.661 64.8409C239.831 63.7159 238.411 62.142 237.4 60.1193C236.388 58.0966 235.883 55.733 235.883 53.0284C235.883 50.3125 236.388 47.9375 237.4 45.9034C238.411 43.8693 239.831 42.2898 241.661 41.1648C243.49 40.0398 245.633 39.4773 248.087 39.4773C250.542 39.4773 252.684 40.0398 254.513 41.1648C256.343 42.2898 257.763 43.8693 258.775 45.9034C259.786 47.9375 260.292 50.3125 260.292 53.0284C260.292 55.733 259.786 58.0966 258.775 60.1193C257.763 62.142 256.343 63.7159 254.513 64.8409C252.684 65.9659 250.542 66.5284 248.087 66.5284ZM248.104 62.25C249.695 62.25 251.013 61.8295 252.059 60.9886C253.104 60.1477 253.877 59.0284 254.377 57.6307C254.888 56.233 255.144 54.6932 255.144 53.0114C255.144 51.3409 254.888 49.8068 254.377 48.4091C253.877 47 253.104 45.8693 252.059 45.017C251.013 44.1648 249.695 43.7386 248.104 43.7386C246.502 43.7386 245.172 44.1648 244.115 45.017C243.07 45.8693 242.292 47 241.78 48.4091C241.28 49.8068 241.03 51.3409 241.03 53.0114C241.03 54.6932 241.28 56.233 241.78 57.6307C242.292 59.0284 243.07 60.1477 244.115 60.9886C245.172 61.8295 246.502 62.25 248.104 62.25ZM265.741 39.8182H270.837V67.7045C270.837 69.4545 270.519 70.9318 269.883 72.1364C269.258 73.3409 268.326 74.2557 267.087 74.8807C265.86 75.5057 264.343 75.8182 262.536 75.8182C262.354 75.8182 262.184 75.8182 262.025 75.8182C261.854 75.8182 261.678 75.8125 261.496 75.8011V71.4205C261.655 71.4205 261.797 71.4205 261.922 71.4205C262.036 71.4205 262.167 71.4205 262.314 71.4205C263.519 71.4205 264.388 71.0966 264.922 70.4489C265.468 69.8125 265.741 68.8864 265.741 67.6705V39.8182ZM268.263 35.7784C267.377 35.7784 266.616 35.483 265.979 34.892C265.354 34.2898 265.042 33.5739 265.042 32.7443C265.042 31.9034 265.354 31.1875 265.979 30.5966C266.616 29.9943 267.377 29.6932 268.263 29.6932C269.15 29.6932 269.905 29.9943 270.53 30.5966C271.167 31.1875 271.485 31.9034 271.485 32.7443C271.485 33.5739 271.167 34.2898 270.53 34.892C269.905 35.483 269.15 35.7784 268.263 35.7784ZM288.738 66.5284C286.158 66.5284 283.937 65.9773 282.073 64.875C280.221 63.7614 278.789 62.1989 277.777 60.1875C276.777 58.1648 276.277 55.7955 276.277 53.0795C276.277 50.3977 276.777 48.0341 277.777 45.9886C278.789 43.9432 280.198 42.3466 282.005 41.1989C283.823 40.0511 285.948 39.4773 288.38 39.4773C289.857 39.4773 291.289 39.7216 292.675 40.2102C294.062 40.6989 295.306 41.4659 296.408 42.5114C297.51 43.5568 298.38 44.9148 299.016 46.5852C299.652 48.2443 299.971 50.2614 299.971 52.6364V54.4432H279.158V50.625H294.976C294.976 49.2841 294.704 48.0966 294.158 47.0625C293.613 46.017 292.846 45.1932 291.857 44.5909C290.88 43.9886 289.732 43.6875 288.414 43.6875C286.982 43.6875 285.732 44.0398 284.664 44.7443C283.607 45.4375 282.789 46.3466 282.209 47.4716C281.641 48.5852 281.357 49.7955 281.357 51.1023V54.0852C281.357 55.8352 281.664 57.3239 282.277 58.5511C282.902 59.7784 283.772 60.7159 284.885 61.3636C285.999 62 287.3 62.3182 288.789 62.3182C289.755 62.3182 290.635 62.1818 291.431 61.9091C292.226 61.625 292.914 61.2045 293.493 60.6477C294.073 60.0909 294.516 59.4034 294.823 58.5852L299.647 59.4545C299.26 60.875 298.567 62.1193 297.567 63.1875C296.579 64.2443 295.334 65.0682 293.834 65.6591C292.346 66.2386 290.647 66.5284 288.738 66.5284ZM316.414 66.5284C313.88 66.5284 311.698 65.9545 309.868 64.8068C308.05 63.6477 306.653 62.0511 305.675 60.017C304.698 57.983 304.209 55.6534 304.209 53.0284C304.209 50.3693 304.709 48.0227 305.709 45.9886C306.709 43.9432 308.118 42.3466 309.937 41.1989C311.755 40.0511 313.897 39.4773 316.363 39.4773C318.351 39.4773 320.124 39.8466 321.681 40.5852C323.238 41.3125 324.493 42.3352 325.448 43.6534C326.414 44.9716 326.988 46.5114 327.17 48.2727H322.209C321.937 47.0455 321.312 45.9886 320.334 45.1023C319.368 44.2159 318.073 43.7727 316.448 43.7727C315.028 43.7727 313.783 44.1477 312.715 44.8977C311.658 45.6364 310.834 46.6932 310.243 48.0682C309.653 49.4318 309.357 51.0455 309.357 52.9091C309.357 54.8182 309.647 56.4659 310.226 57.8523C310.806 59.2386 311.624 60.3125 312.681 61.0739C313.749 61.8352 315.005 62.2159 316.448 62.2159C317.414 62.2159 318.289 62.0398 319.073 61.6875C319.868 61.3239 320.533 60.8068 321.067 60.1364C321.613 59.4659 321.993 58.6591 322.209 57.7159H327.17C326.988 59.4091 326.437 60.9205 325.516 62.25C324.596 63.5795 323.363 64.625 321.817 65.3864C320.283 66.1477 318.482 66.5284 316.414 66.5284ZM344.601 39.8182V43.9091H330.3V39.8182H344.601ZM334.136 33.5455H339.232V58.3125C339.232 59.3011 339.38 60.0455 339.675 60.5455C339.971 61.0341 340.351 61.3693 340.817 61.5511C341.295 61.7216 341.812 61.8068 342.369 61.8068C342.778 61.8068 343.136 61.7784 343.442 61.7216C343.749 61.6648 343.988 61.6193 344.158 61.5852L345.079 65.7955C344.783 65.9091 344.363 66.0227 343.817 66.1364C343.272 66.2614 342.59 66.3295 341.772 66.3409C340.431 66.3636 339.181 66.125 338.022 65.625C336.863 65.125 335.925 64.3523 335.209 63.3068C334.494 62.2614 334.136 60.9489 334.136 59.3693V33.5455Z" fill="#888888"/>
<path d="M394 55.5V61.4C394 62.3548 393.621 63.2705 392.946 63.9456C392.27 64.6207 391.355 65 390.4 65H370.6C369.645 65 368.73 64.6207 368.054 63.9456C367.379 63.2705 367 62.3548 367 61.4V41.6C367 40.6452 367.379 39.7295 368.054 39.0544C368.73 38.3793 369.645 38 370.6 38H376.5" stroke="#888888" stroke-width="5" stroke-linecap="square" stroke-linejoin="round"/>
<path d="M388 32H400V44" stroke="#888888" stroke-width="5" stroke-linecap="square"/>
<path d="M380 52L399 33" stroke="#888888" stroke-width="5" stroke-linecap="square" stroke-linejoin="round"/>
</svg>
